<svg width="63" height="60" viewBox="0 0 63 60" fill="none" xmlns="http://www.w3.org/2000/svg">
<path d="M31.4867 21.6543C34.0706 19.3724 38.0635 19.4482 40.5528 21.901C43.0409 24.3549 43.1267 28.2629 40.8124 30.812L31.4845 40L22.1589 30.812C19.8446 28.2629 19.9315 24.3484 22.4185 21.901C24.91 19.4514 28.8952 19.3692 31.4867 21.6543ZM38.9952 23.4298C37.3452 21.8047 34.6833 21.7387 32.9563 23.2643L31.4878 24.5604L30.0183 23.2653C28.2858 21.7376 25.6294 21.8047 23.975 23.432C22.336 25.0441 22.2535 27.6245 23.7638 29.3297L31.4856 36.937L39.2075 29.3308C40.7189 27.6245 40.6364 25.0473 38.9952 23.4298Z" fill="#838383"/>
<circle cx="44.7" cy="20.7" r="8.7" fill="#FFA542"/>
<path d="M48.8075 24.695V26H41.2625V24.98L45.5375 20.855C46.0575 20.355 46.4075 19.925 46.5875 19.565C46.7675 19.195 46.8575 18.825 46.8575 18.455C46.8575 17.905 46.6625 17.48 46.2725 17.18C45.8925 16.87 45.3425 16.715 44.6225 16.715C43.4625 16.715 42.5675 17.095 41.9375 17.855L40.9175 16.97C41.3275 16.47 41.8625 16.08 42.5225 15.8C43.1925 15.52 43.9375 15.38 44.7575 15.38C45.8575 15.38 46.7325 15.645 47.3825 16.175C48.0325 16.695 48.3575 17.405 48.3575 18.305C48.3575 18.865 48.2375 19.395 47.9975 19.895C47.7575 20.395 47.3025 20.965 46.6325 21.605L43.4225 24.695H48.8075Z" fill="white"/>
</svg>
